<svg width="40" height="40" viewBox="0 0 40 40" fill="none" xmlns="http://www.w3.org/2000/svg">
<path d="M19.9975 0C8.955 0 0 8.97246 0 20.0408C0 28.8935 5.73 36.4038 13.68 39.0562C14.68 39.2408 15.045 38.622 15.045 38.0905C15.045 37.614 15.0275 36.3539 15.0175 34.6822C9.455 35.8923 8.28 31.995 8.28 31.995C7.3725 29.6795 6.06 29.0632 6.06 29.0632C4.2425 27.8206 6.195 27.8456 6.195 27.8456C8.2025 27.9878 9.2575 29.9115 9.2575 29.9115C11.0425 32.973 13.94 32.0898 15.08 31.5758C15.26 30.2808 15.7775 29.3975 16.35 28.896C11.91 28.3895 7.24 26.6704 7.24 18.9929C7.24 16.8047 8.02 15.0156 9.3 13.6134C9.0925 13.1069 8.4075 11.0684 9.495 8.31125C9.495 8.31125 11.175 7.77231 14.995 10.3647C16.59 9.92061 18.3 9.69854 20.0025 9.69106C21.7 9.70104 23.4125 9.92061 25.01 10.3672C28.8275 7.7748 30.505 8.31375 30.505 8.31375C31.595 11.0734 30.91 13.1094 30.705 13.6159C31.9875 15.0181 32.76 16.8071 32.76 18.9954C32.76 26.6928 28.085 28.387 23.63 28.8835C24.3475 29.5023 24.9875 30.7249 24.9875 32.5938C24.9875 35.2735 24.9625 37.4343 24.9625 38.0905C24.9625 38.627 25.3225 39.2508 26.3375 39.0537C34.275 36.3988 40 28.891 40 20.0408C40 8.97246 31.045 0 19.9975 0Z" fill="white"/>
</svg>
