<svg width="33" height="32" viewBox="0 0 33 32" fill="none" xmlns="http://www.w3.org/2000/svg">
<path fill-rule="evenodd" clip-rule="evenodd" d="M25.2956 6.28064C25.2345 5.45275 24.5435 4.80005 23.7 4.80005H6.1L5.98059 4.80444C5.1527 4.86552 4.5 5.55656 4.5 6.40005V19.2L4.50439 19.3195C4.56547 20.1473 5.25651 20.8 6.1 20.8H14.9L14.9933 20.7947C15.3912 20.7485 15.7 20.4103 15.7 20C15.7 19.5582 15.3418 19.2 14.9 19.2H6.1V6.40005H23.7V13.6L23.7054 13.6933C23.7516 14.0912 24.0897 14.4 24.5 14.4C24.9418 14.4 25.3 14.0419 25.3 13.6V6.40005L25.2956 6.28064ZM22.9 15.2C26.4346 15.2 29.3 18.0654 29.3 21.6C29.3 25.1347 26.4346 28 22.9 28C19.3654 28 16.5 25.1347 16.5 21.6C16.5 18.0654 19.3654 15.2 22.9 15.2ZM22.9 16.8C20.249 16.8 18.1 18.9491 18.1 21.6C18.1 24.251 20.249 26.4 22.9 26.4C25.551 26.4 27.7 24.251 27.7 21.6C27.7 18.9491 25.551 16.8 22.9 16.8ZM22.9003 24.8L25.7438 22.9044C26.1114 22.6593 26.2107 22.1626 25.9656 21.795C25.7381 21.4536 25.2935 21.3436 24.9369 21.5258L24.8562 21.5731L23.6988 22.3448L23.7 19.039C23.7001 18.5971 23.3421 18.2389 22.9002 18.2387C22.49 18.2386 22.1517 18.5474 22.1054 18.9452L22.1 19.0385L22.0988 22.3448L20.9407 21.5729C20.5992 21.3455 20.1466 21.4151 19.8876 21.7207L19.8314 21.7953C19.604 22.1368 19.6736 22.5894 19.9792 22.8484L20.0539 22.9046L22.9003 24.8ZM9.37604 13.0838V14.775H8.30937V9.97505H10.3289C10.7177 9.97505 11.0596 10.041 11.3547 10.1729C11.6498 10.3047 11.8768 10.4921 12.0356 10.7349C12.1944 10.9778 12.2738 11.2542 12.2738 11.5641C12.2738 12.0344 12.1002 12.4053 11.7529 12.6767C11.4057 12.9481 10.9251 13.0838 10.3112 13.0838H9.37604ZM9.37604 12.2827H10.3289C10.611 12.2827 10.8261 12.2212 10.9743 12.0981C11.1224 11.975 11.1965 11.7992 11.1965 11.5707C11.1965 11.3355 11.1218 11.1454 10.9725 11.0003C10.8232 10.8553 10.6169 10.7805 10.3538 10.7761H9.37604V12.2827ZM14.6098 14.775C15.0626 14.7729 15.4691 14.6761 15.8294 14.4849C16.1897 14.2937 16.4688 14.0245 16.6667 13.6772C16.8646 13.33 16.9636 12.9333 16.9636 12.4871V12.2663C16.9636 11.8201 16.8629 11.4218 16.6614 11.0712C16.4599 10.7207 16.1796 10.4503 15.8205 10.2602C15.4614 10.0701 15.0543 9.97505 14.5992 9.97505H13.0063V14.775H14.6098ZM14.0729 13.9805H14.5885C15.0057 13.9805 15.3245 13.8542 15.5449 13.6014C15.7654 13.3487 15.878 12.9871 15.8827 12.5168V12.263C15.8827 11.775 15.7737 11.4053 15.5556 11.1536C15.3375 10.902 15.0187 10.7761 14.5992 10.7761H14.0729V13.9805ZM18.8054 14.775V12.8135H20.8534V12.0157H18.8054V10.7761H21.1094V9.97505H17.7387V14.775H18.8054Z" fill="#424242"/>
</svg>
